<svg width="640" height="512" viewBox="0 0 640 512" fill="none" xmlns="http://www.w3.org/2000/svg">
<path d="M0 237.3C0 159.3 63.3 96 141.3 96C180.3 96 217.5 112.1 244.2 140.5L320 221L395.8 140.5C422.5 112.1 459.7 96 498.7 96C576.7 96 640 159.3 640 237.3V274.7C640 352.7 576.7 416 498.7 416C459.7 416 422.5 399.9 395.8 371.5L320 291L244.2 371.5C217.5 399.9 180.3 416 141.3 416C63.3 416 0 352.7 0 274.7V237.3ZM287 256L209.2 173.4C191.6 154.7 167 144 141.2 144C89.8 144 48 185.8 48 237.3V274.7C48 326.2 89.8 368 141.3 368C167 368 191.6 357.4 209.3 338.6L287 256ZM352.9 256L430.7 338.6C448.3 357.3 472.9 368 498.7 368C550.2 368 592 326.2 592 274.7V237.3C592 185.8 550.2 144 498.7 144C473 144 448.4 154.6 430.7 173.4L353 256H352.9Z" fill="#091627"/>
</svg>
